<?xml version="1.0" encoding="utf-8"?>
<!-- Generator: Adobe Illustrator 25.2.1, SVG Export Plug-In . SVG Version: 6.00 Build 0)  -->
<!DOCTYPE svg PUBLIC "-//W3C//DTD SVG 1.1//EN" "http://www.w3.org/Graphics/SVG/1.1/DTD/svg11.dtd" [
	<!ENTITY ns_extend "http://ns.adobe.com/Extensibility/1.0/">
	<!ENTITY ns_ai "http://ns.adobe.com/AdobeIllustrator/10.0/">
	<!ENTITY ns_graphs "http://ns.adobe.com/Graphs/1.0/">
	<!ENTITY ns_vars "http://ns.adobe.com/Variables/1.0/">
	<!ENTITY ns_imrep "http://ns.adobe.com/ImageReplacement/1.0/">
	<!ENTITY ns_sfw "http://ns.adobe.com/SaveForWeb/1.0/">
	<!ENTITY ns_custom "http://ns.adobe.com/GenericCustomNamespace/1.0/">
	<!ENTITY ns_adobe_xpath "http://ns.adobe.com/XPath/1.0/">
]>
<svg version="1.1" id="Layer_1" xmlns:x="&ns_extend;" xmlns:i="&ns_ai;" xmlns:graph="&ns_graphs;"
	 xmlns="http://www.w3.org/2000/svg" xmlns:xlink="http://www.w3.org/1999/xlink" x="0px" y="0px" width="286.1px" height="286.1px"
	 viewBox="0 0 286.1 286.1" style="enable-background:new 0 0 286.1 286.1;" xml:space="preserve">
<style type="text/css">
	.st0{fill:#FA6C04;}
</style>
<metadata>
	<sfw  xmlns="&ns_sfw;">
		<slices></slices>
		<sliceSourceBounds  bottomLeftOrigin="true" height="286.1" width="286.1" x="0" y="0"></sliceSourceBounds>
	</sfw>
</metadata>
<g>
	<path class="st0" d="M143,0C64,0,0,64,0,143c0,79,64,143,143,143c79,0,143-64,143-143C286.1,64,222,0,143,0z M143,259.2
		c-64.2,0-116.2-52-116.2-116.2S78.8,26.8,143,26.8s116.2,52,116.2,116.2S207.2,259.2,143,259.2z M143,62.7c-10.2,0-18,5.3-18,14
		v79.2c0,8.6,7.7,14,18,14c10,0,18-5.6,18-14V76.7C161,68.3,153,62.7,143,62.7z M143,187.7c-9.8,0-17.9,8-17.9,17.9
		c0,9.8,8,17.8,17.9,17.8s17.8-8,17.8-17.8C160.9,195.7,152.9,187.7,143,187.7z"/>
</g>
</svg>
